<mxfile host="app.diagrams.net" modified="2024-04-15T15:38:12.073Z" agent="Mozilla/5.0 (Macintosh; Intel Mac OS X 10_15_7) AppleWebKit/537.36 (KHTML, like Gecko) Chrome/123.0.0.0 Safari/537.36" etag="1MmhKJfVR_lPwVkMKGHC" version="24.2.5" type="device">
  <diagram name="Sida-1" id="ZW5hrLnw6XAvimAl8bez">
    <mxGraphModel dx="1914" dy="3364" grid="1" gridSize="10" guides="1" tooltips="1" connect="1" arrows="1" fold="1" page="1" pageScale="1" pageWidth="827" pageHeight="1169" background="#FFFFFF" math="0" shadow="0">
      <root>
        <mxCell id="0" />
        <mxCell id="1" parent="0" />
        <mxCell id="VhnykTRWHjkYGvoEgmxo-1" value="What did BB do?" style="rhombus;whiteSpace=wrap;html=1;shadow=0;fontFamily=Helvetica;fontSize=12;align=center;strokeWidth=1;spacing=6;spacingTop=-4;fillColor=#d5e8d4;strokeColor=#82b366;" vertex="1" parent="1">
          <mxGeometry x="290" y="-1150" width="130" height="110" as="geometry" />
        </mxCell>
        <mxCell id="VhnykTRWHjkYGvoEgmxo-2" style="edgeStyle=none;curved=1;rounded=0;orthogonalLoop=1;jettySize=auto;html=1;exitX=0.75;exitY=1;exitDx=0;exitDy=0;fontSize=12;startSize=8;endSize=8;" edge="1" parent="1" source="VhnykTRWHjkYGvoEgmxo-11" target="VhnykTRWHjkYGvoEgmxo-11">
          <mxGeometry relative="1" as="geometry" />
        </mxCell>
        <mxCell id="VhnykTRWHjkYGvoEgmxo-6" value="" style="rounded=0;html=1;jettySize=auto;orthogonalLoop=1;fontSize=11;endArrow=block;endFill=0;endSize=8;strokeWidth=1;shadow=0;labelBackgroundColor=none;edgeStyle=orthogonalEdgeStyle;exitX=0.5;exitY=1;exitDx=0;exitDy=0;entryX=0.5;entryY=0;entryDx=0;entryDy=0;" edge="1" parent="1" source="VhnykTRWHjkYGvoEgmxo-8" target="VhnykTRWHjkYGvoEgmxo-1">
          <mxGeometry relative="1" as="geometry">
            <mxPoint x="360" y="-1270" as="sourcePoint" />
            <mxPoint x="360" y="-1160" as="targetPoint" />
          </mxGeometry>
        </mxCell>
        <mxCell id="VhnykTRWHjkYGvoEgmxo-7" value="" style="rounded=0;html=1;jettySize=auto;orthogonalLoop=1;fontSize=11;endArrow=block;endFill=0;endSize=8;strokeWidth=1;shadow=0;labelBackgroundColor=none;edgeStyle=orthogonalEdgeStyle;exitX=0.5;exitY=1;exitDx=0;exitDy=0;entryX=0.5;entryY=0;entryDx=0;entryDy=0;" edge="1" parent="1" target="VhnykTRWHjkYGvoEgmxo-8">
          <mxGeometry relative="1" as="geometry">
            <mxPoint x="360" y="-1270" as="sourcePoint" />
            <mxPoint x="355" y="-1150" as="targetPoint" />
          </mxGeometry>
        </mxCell>
        <mxCell id="VhnykTRWHjkYGvoEgmxo-8" value="Render BB options" style="rounded=1;whiteSpace=wrap;html=1;fontSize=12;glass=0;strokeWidth=1;shadow=0;fillColor=#e1d5e7;strokeColor=#9673a6;" vertex="1" parent="1">
          <mxGeometry x="295" y="-1290" width="120" height="40" as="geometry" />
        </mxCell>
        <mxCell id="VhnykTRWHjkYGvoEgmxo-9" value="" style="rounded=0;html=1;jettySize=auto;orthogonalLoop=1;fontSize=11;endArrow=block;endFill=0;endSize=8;strokeWidth=1;shadow=0;labelBackgroundColor=none;edgeStyle=orthogonalEdgeStyle;exitX=0.5;exitY=1;exitDx=0;exitDy=0;entryX=0.5;entryY=0;entryDx=0;entryDy=0;" edge="1" parent="1" source="VhnykTRWHjkYGvoEgmxo-1" target="VhnykTRWHjkYGvoEgmxo-11">
          <mxGeometry relative="1" as="geometry">
            <mxPoint x="355" y="-1040" as="sourcePoint" />
            <mxPoint x="360" y="-850" as="targetPoint" />
          </mxGeometry>
        </mxCell>
        <mxCell id="VhnykTRWHjkYGvoEgmxo-10" value="Check/Bet" style="edgeLabel;html=1;align=center;verticalAlign=middle;resizable=0;points=[];fontSize=12;" vertex="1" connectable="0" parent="VhnykTRWHjkYGvoEgmxo-9">
          <mxGeometry x="0.1167" relative="1" as="geometry">
            <mxPoint as="offset" />
          </mxGeometry>
        </mxCell>
        <mxCell id="VhnykTRWHjkYGvoEgmxo-11" value="Render BTN options" style="rounded=1;whiteSpace=wrap;html=1;fontSize=12;glass=0;strokeWidth=1;shadow=0;fillColor=#dae8fc;strokeColor=#6c8ebf;" vertex="1" parent="1">
          <mxGeometry x="295" y="-960" width="120" height="40" as="geometry" />
        </mxCell>
        <mxCell id="VhnykTRWHjkYGvoEgmxo-12" value="What did BB do?" style="rhombus;whiteSpace=wrap;html=1;shadow=0;fontFamily=Helvetica;fontSize=12;align=center;strokeWidth=1;spacing=6;spacingTop=-4;fillColor=#d5e8d4;strokeColor=#82b366;" vertex="1" parent="1">
          <mxGeometry x="290" y="-820" width="130" height="110" as="geometry" />
        </mxCell>
        <mxCell id="VhnykTRWHjkYGvoEgmxo-13" value="" style="rounded=0;html=1;jettySize=auto;orthogonalLoop=1;fontSize=11;endArrow=block;endFill=0;endSize=8;strokeWidth=1;shadow=0;labelBackgroundColor=none;edgeStyle=orthogonalEdgeStyle;exitX=0.5;exitY=1;exitDx=0;exitDy=0;entryX=0.5;entryY=0;entryDx=0;entryDy=0;" edge="1" parent="1" target="VhnykTRWHjkYGvoEgmxo-12">
          <mxGeometry relative="1" as="geometry">
            <mxPoint x="352.5" y="-920" as="sourcePoint" />
            <mxPoint x="357.5" y="-830" as="targetPoint" />
          </mxGeometry>
        </mxCell>
        <mxCell id="VhnykTRWHjkYGvoEgmxo-14" value="" style="rounded=0;html=1;jettySize=auto;orthogonalLoop=1;fontSize=11;endArrow=block;endFill=0;endSize=8;strokeWidth=1;shadow=0;labelBackgroundColor=none;edgeStyle=orthogonalEdgeStyle;exitX=1;exitY=0.5;exitDx=0;exitDy=0;entryX=0;entryY=0.5;entryDx=0;entryDy=0;" edge="1" parent="1" source="VhnykTRWHjkYGvoEgmxo-1" target="VhnykTRWHjkYGvoEgmxo-16">
          <mxGeometry relative="1" as="geometry">
            <mxPoint x="520" y="-1070" as="sourcePoint" />
            <mxPoint x="540" y="-1095" as="targetPoint" />
          </mxGeometry>
        </mxCell>
        <mxCell id="VhnykTRWHjkYGvoEgmxo-15" value="Fold" style="edgeLabel;html=1;align=center;verticalAlign=middle;resizable=0;points=[];fontSize=12;" vertex="1" connectable="0" parent="VhnykTRWHjkYGvoEgmxo-14">
          <mxGeometry x="-0.1923" y="3" relative="1" as="geometry">
            <mxPoint as="offset" />
          </mxGeometry>
        </mxCell>
        <mxCell id="VhnykTRWHjkYGvoEgmxo-16" value="Move pot to BTN stack" style="rounded=1;whiteSpace=wrap;html=1;fontSize=12;glass=0;strokeWidth=1;shadow=0;fillColor=#dae8fc;strokeColor=#6c8ebf;" vertex="1" parent="1">
          <mxGeometry x="490" y="-1115" width="130" height="40" as="geometry" />
        </mxCell>
        <mxCell id="VhnykTRWHjkYGvoEgmxo-17" value="" style="rounded=0;html=1;jettySize=auto;orthogonalLoop=1;fontSize=11;endArrow=block;endFill=0;endSize=8;strokeWidth=1;shadow=0;labelBackgroundColor=none;edgeStyle=orthogonalEdgeStyle;exitX=0;exitY=0.5;exitDx=0;exitDy=0;entryX=0.5;entryY=0;entryDx=0;entryDy=0;" edge="1" parent="1" source="VhnykTRWHjkYGvoEgmxo-1" target="VhnykTRWHjkYGvoEgmxo-28">
          <mxGeometry relative="1" as="geometry">
            <mxPoint x="190" y="-1120" as="sourcePoint" />
            <mxPoint x="135" y="-825" as="targetPoint" />
          </mxGeometry>
        </mxCell>
        <mxCell id="VhnykTRWHjkYGvoEgmxo-18" value="Call" style="edgeLabel;html=1;align=center;verticalAlign=middle;resizable=0;points=[];fontSize=12;" vertex="1" connectable="0" parent="VhnykTRWHjkYGvoEgmxo-17">
          <mxGeometry x="-0.1923" y="3" relative="1" as="geometry">
            <mxPoint as="offset" />
          </mxGeometry>
        </mxCell>
        <mxCell id="VhnykTRWHjkYGvoEgmxo-19" value="Check/Call" style="edgeStyle=orthogonalEdgeStyle;rounded=0;html=1;jettySize=auto;orthogonalLoop=1;fontSize=11;endArrow=block;endFill=0;endSize=8;strokeWidth=1;shadow=0;labelBackgroundColor=none;exitX=0;exitY=0.5;exitDx=0;exitDy=0;entryX=1;entryY=0.5;entryDx=0;entryDy=0;" edge="1" parent="1" source="VhnykTRWHjkYGvoEgmxo-12" target="VhnykTRWHjkYGvoEgmxo-28">
          <mxGeometry y="10" relative="1" as="geometry">
            <mxPoint as="offset" />
            <mxPoint x="490" y="-730" as="sourcePoint" />
            <mxPoint x="195" y="-805" as="targetPoint" />
          </mxGeometry>
        </mxCell>
        <mxCell id="VhnykTRWHjkYGvoEgmxo-20" value="" style="rounded=0;html=1;jettySize=auto;orthogonalLoop=1;fontSize=11;endArrow=block;endFill=0;endSize=8;strokeWidth=1;shadow=0;labelBackgroundColor=none;edgeStyle=orthogonalEdgeStyle;exitX=1;exitY=0.5;exitDx=0;exitDy=0;entryX=0;entryY=0.5;entryDx=0;entryDy=0;" edge="1" parent="1" source="VhnykTRWHjkYGvoEgmxo-12" target="VhnykTRWHjkYGvoEgmxo-22">
          <mxGeometry relative="1" as="geometry">
            <mxPoint x="470" y="-760" as="sourcePoint" />
            <mxPoint x="522.5" y="-805" as="targetPoint" />
          </mxGeometry>
        </mxCell>
        <mxCell id="VhnykTRWHjkYGvoEgmxo-21" value="Fold" style="edgeLabel;html=1;align=center;verticalAlign=middle;resizable=0;points=[];fontSize=12;" vertex="1" connectable="0" parent="VhnykTRWHjkYGvoEgmxo-20">
          <mxGeometry x="-0.1923" y="3" relative="1" as="geometry">
            <mxPoint as="offset" />
          </mxGeometry>
        </mxCell>
        <mxCell id="VhnykTRWHjkYGvoEgmxo-22" value="Move pot to BB stack" style="rounded=1;whiteSpace=wrap;html=1;fontSize=12;glass=0;strokeWidth=1;shadow=0;fillColor=#dae8fc;strokeColor=#6c8ebf;" vertex="1" parent="1">
          <mxGeometry x="490" y="-785" width="130" height="40" as="geometry" />
        </mxCell>
        <mxCell id="VhnykTRWHjkYGvoEgmxo-23" value="" style="rounded=0;html=1;jettySize=auto;orthogonalLoop=1;fontSize=11;endArrow=block;endFill=0;endSize=8;strokeWidth=1;shadow=0;labelBackgroundColor=none;edgeStyle=orthogonalEdgeStyle;exitX=0.5;exitY=1;exitDx=0;exitDy=0;entryX=1;entryY=0.5;entryDx=0;entryDy=0;" edge="1" parent="1" source="VhnykTRWHjkYGvoEgmxo-12" target="VhnykTRWHjkYGvoEgmxo-8">
          <mxGeometry relative="1" as="geometry">
            <mxPoint x="360" y="-710" as="sourcePoint" />
            <mxPoint x="20" y="-1290" as="targetPoint" />
            <Array as="points">
              <mxPoint x="355" y="-680" />
              <mxPoint x="640" y="-680" />
              <mxPoint x="640" y="-1270" />
            </Array>
          </mxGeometry>
        </mxCell>
        <mxCell id="VhnykTRWHjkYGvoEgmxo-24" value="Bet/raise" style="edgeLabel;html=1;align=center;verticalAlign=middle;resizable=0;points=[];fontSize=12;" vertex="1" connectable="0" parent="VhnykTRWHjkYGvoEgmxo-23">
          <mxGeometry x="-0.8437" relative="1" as="geometry">
            <mxPoint as="offset" />
          </mxGeometry>
        </mxCell>
        <mxCell id="VhnykTRWHjkYGvoEgmxo-27" value="" style="rounded=0;html=1;jettySize=auto;orthogonalLoop=1;fontSize=11;endArrow=block;endFill=0;endSize=8;strokeWidth=1;shadow=0;labelBackgroundColor=none;edgeStyle=orthogonalEdgeStyle;exitX=0.5;exitY=1;exitDx=0;exitDy=0;entryX=0.5;entryY=0;entryDx=0;entryDy=0;" edge="1" parent="1" target="VhnykTRWHjkYGvoEgmxo-25">
          <mxGeometry relative="1" as="geometry">
            <mxPoint x="135" y="-785" as="sourcePoint" />
            <mxPoint x="135" y="-690" as="targetPoint" />
            <Array as="points">
              <mxPoint x="136" y="-785" />
              <mxPoint x="136" y="-622" />
              <mxPoint x="135" y="-622" />
            </Array>
          </mxGeometry>
        </mxCell>
        <mxCell id="VhnykTRWHjkYGvoEgmxo-25" value="Are players allin?" style="rhombus;whiteSpace=wrap;html=1;shadow=0;fontFamily=Helvetica;fontSize=12;align=center;strokeWidth=1;spacing=6;spacingTop=-4;fillColor=#d5e8d4;strokeColor=#82b366;" vertex="1" parent="1">
          <mxGeometry x="70" y="-659" width="130" height="110" as="geometry" />
        </mxCell>
        <mxCell id="VhnykTRWHjkYGvoEgmxo-28" value="Deal River" style="rounded=1;whiteSpace=wrap;html=1;fontSize=12;glass=0;strokeWidth=1;shadow=0;fillColor=#e1d5e7;strokeColor=#9673a6;" vertex="1" parent="1">
          <mxGeometry x="70" y="-785" width="130" height="40" as="geometry" />
        </mxCell>
        <mxCell id="VhnykTRWHjkYGvoEgmxo-29" value="" style="rounded=0;html=1;jettySize=auto;orthogonalLoop=1;fontSize=11;endArrow=block;endFill=0;endSize=8;strokeWidth=1;shadow=0;labelBackgroundColor=none;edgeStyle=orthogonalEdgeStyle;exitX=0.5;exitY=1;exitDx=0;exitDy=0;" edge="1" parent="1" source="VhnykTRWHjkYGvoEgmxo-25">
          <mxGeometry relative="1" as="geometry">
            <mxPoint x="90" y="-280" as="sourcePoint" />
            <mxPoint x="135" y="-450" as="targetPoint" />
          </mxGeometry>
        </mxCell>
        <mxCell id="VhnykTRWHjkYGvoEgmxo-30" value="Yes" style="edgeLabel;html=1;align=center;verticalAlign=middle;resizable=0;points=[];fontSize=12;" vertex="1" connectable="0" parent="VhnykTRWHjkYGvoEgmxo-29">
          <mxGeometry x="0.1167" relative="1" as="geometry">
            <mxPoint as="offset" />
          </mxGeometry>
        </mxCell>
        <mxCell id="VhnykTRWHjkYGvoEgmxo-31" value="Compare hands" style="rounded=1;whiteSpace=wrap;html=1;fontSize=12;glass=0;strokeWidth=1;shadow=0;fillColor=#dae8fc;strokeColor=#6c8ebf;" vertex="1" parent="1">
          <mxGeometry x="75" y="-450" width="120" height="40" as="geometry" />
        </mxCell>
        <mxCell id="VhnykTRWHjkYGvoEgmxo-32" value="Move pot to winning player" style="rounded=1;whiteSpace=wrap;html=1;fontSize=12;glass=0;strokeWidth=1;shadow=0;fillColor=#e1d5e7;strokeColor=#9673a6;" vertex="1" parent="1">
          <mxGeometry x="70" y="-310" width="130" height="40" as="geometry" />
        </mxCell>
        <mxCell id="VhnykTRWHjkYGvoEgmxo-33" value="" style="rounded=0;html=1;jettySize=auto;orthogonalLoop=1;fontSize=11;endArrow=block;endFill=0;endSize=8;strokeWidth=1;shadow=0;labelBackgroundColor=none;edgeStyle=orthogonalEdgeStyle;exitX=0.5;exitY=1;exitDx=0;exitDy=0;entryX=0.5;entryY=0;entryDx=0;entryDy=0;" edge="1" parent="1" source="VhnykTRWHjkYGvoEgmxo-31" target="VhnykTRWHjkYGvoEgmxo-32">
          <mxGeometry relative="1" as="geometry">
            <mxPoint x="130" y="-360" as="sourcePoint" />
            <mxPoint x="130" y="-270" as="targetPoint" />
          </mxGeometry>
        </mxCell>
        <mxCell id="VhnykTRWHjkYGvoEgmxo-37" value="" style="rounded=0;html=1;jettySize=auto;orthogonalLoop=1;fontSize=11;endArrow=block;endFill=0;endSize=8;strokeWidth=1;shadow=0;labelBackgroundColor=none;edgeStyle=orthogonalEdgeStyle;exitX=1;exitY=0.5;exitDx=0;exitDy=0;entryX=0;entryY=0.5;entryDx=0;entryDy=0;" edge="1" parent="1" source="VhnykTRWHjkYGvoEgmxo-25" target="VhnykTRWHjkYGvoEgmxo-55">
          <mxGeometry relative="1" as="geometry">
            <mxPoint x="390" y="-540" as="sourcePoint" />
            <mxPoint x="410" y="-595" as="targetPoint" />
          </mxGeometry>
        </mxCell>
        <mxCell id="VhnykTRWHjkYGvoEgmxo-38" value="No" style="edgeLabel;html=1;align=center;verticalAlign=middle;resizable=0;points=[];fontSize=12;" vertex="1" connectable="0" parent="VhnykTRWHjkYGvoEgmxo-37">
          <mxGeometry x="0.1167" relative="1" as="geometry">
            <mxPoint as="offset" />
          </mxGeometry>
        </mxCell>
        <mxCell id="VhnykTRWHjkYGvoEgmxo-41" value="What did BB do?" style="rhombus;whiteSpace=wrap;html=1;shadow=0;fontFamily=Helvetica;fontSize=12;align=center;strokeWidth=1;spacing=6;spacingTop=-4;fillColor=#d5e8d4;strokeColor=#82b366;" vertex="1" parent="1">
          <mxGeometry x="400" y="-485" width="130" height="110" as="geometry" />
        </mxCell>
        <mxCell id="VhnykTRWHjkYGvoEgmxo-42" value="" style="rounded=0;html=1;jettySize=auto;orthogonalLoop=1;fontSize=11;endArrow=block;endFill=0;endSize=8;strokeWidth=1;shadow=0;labelBackgroundColor=none;edgeStyle=orthogonalEdgeStyle;exitX=0.5;exitY=1;exitDx=0;exitDy=0;entryX=0.5;entryY=0;entryDx=0;entryDy=0;" edge="1" parent="1" source="VhnykTRWHjkYGvoEgmxo-41" target="VhnykTRWHjkYGvoEgmxo-44">
          <mxGeometry relative="1" as="geometry">
            <mxPoint x="465" y="-370" as="sourcePoint" />
            <mxPoint x="470" y="-180" as="targetPoint" />
          </mxGeometry>
        </mxCell>
        <mxCell id="VhnykTRWHjkYGvoEgmxo-43" value="Check/Bet" style="edgeLabel;html=1;align=center;verticalAlign=middle;resizable=0;points=[];fontSize=12;" vertex="1" connectable="0" parent="VhnykTRWHjkYGvoEgmxo-42">
          <mxGeometry x="0.1167" relative="1" as="geometry">
            <mxPoint as="offset" />
          </mxGeometry>
        </mxCell>
        <mxCell id="VhnykTRWHjkYGvoEgmxo-44" value="Render BTN options" style="rounded=1;whiteSpace=wrap;html=1;fontSize=12;glass=0;strokeWidth=1;shadow=0;fillColor=#dae8fc;strokeColor=#6c8ebf;" vertex="1" parent="1">
          <mxGeometry x="410" y="-280" width="120" height="40" as="geometry" />
        </mxCell>
        <mxCell id="VhnykTRWHjkYGvoEgmxo-45" value="What did BB do?" style="rhombus;whiteSpace=wrap;html=1;shadow=0;fontFamily=Helvetica;fontSize=12;align=center;strokeWidth=1;spacing=6;spacingTop=-4;fillColor=#d5e8d4;strokeColor=#82b366;" vertex="1" parent="1">
          <mxGeometry x="405" y="-153" width="130" height="110" as="geometry" />
        </mxCell>
        <mxCell id="VhnykTRWHjkYGvoEgmxo-46" value="" style="rounded=0;html=1;jettySize=auto;orthogonalLoop=1;fontSize=11;endArrow=block;endFill=0;endSize=8;strokeWidth=1;shadow=0;labelBackgroundColor=none;edgeStyle=orthogonalEdgeStyle;exitX=0.5;exitY=1;exitDx=0;exitDy=0;entryX=0.5;entryY=0;entryDx=0;entryDy=0;" edge="1" parent="1" target="VhnykTRWHjkYGvoEgmxo-45" source="VhnykTRWHjkYGvoEgmxo-44">
          <mxGeometry relative="1" as="geometry">
            <mxPoint x="462.5" y="-250" as="sourcePoint" />
            <mxPoint x="467.5" y="-160" as="targetPoint" />
          </mxGeometry>
        </mxCell>
        <mxCell id="VhnykTRWHjkYGvoEgmxo-47" value="" style="rounded=0;html=1;jettySize=auto;orthogonalLoop=1;fontSize=11;endArrow=block;endFill=0;endSize=8;strokeWidth=1;shadow=0;labelBackgroundColor=none;edgeStyle=orthogonalEdgeStyle;exitX=1;exitY=0.5;exitDx=0;exitDy=0;entryX=0;entryY=0.5;entryDx=0;entryDy=0;" edge="1" parent="1" source="VhnykTRWHjkYGvoEgmxo-41" target="VhnykTRWHjkYGvoEgmxo-49">
          <mxGeometry relative="1" as="geometry">
            <mxPoint x="630" y="-400" as="sourcePoint" />
            <mxPoint x="650" y="-425" as="targetPoint" />
          </mxGeometry>
        </mxCell>
        <mxCell id="VhnykTRWHjkYGvoEgmxo-48" value="Fold" style="edgeLabel;html=1;align=center;verticalAlign=middle;resizable=0;points=[];fontSize=12;" vertex="1" connectable="0" parent="VhnykTRWHjkYGvoEgmxo-47">
          <mxGeometry x="-0.1923" y="3" relative="1" as="geometry">
            <mxPoint as="offset" />
          </mxGeometry>
        </mxCell>
        <mxCell id="VhnykTRWHjkYGvoEgmxo-49" value="Move pot to BTN stack" style="rounded=1;whiteSpace=wrap;html=1;fontSize=12;glass=0;strokeWidth=1;shadow=0;fillColor=#e1d5e7;strokeColor=#9673a6;" vertex="1" parent="1">
          <mxGeometry x="600" y="-450" width="130" height="40" as="geometry" />
        </mxCell>
        <mxCell id="VhnykTRWHjkYGvoEgmxo-51" value="Move pot to BB stack" style="rounded=1;whiteSpace=wrap;html=1;fontSize=12;glass=0;strokeWidth=1;shadow=0;fillColor=#e1d5e7;strokeColor=#9673a6;" vertex="1" parent="1">
          <mxGeometry x="600" y="-118" width="130" height="40" as="geometry" />
        </mxCell>
        <mxCell id="VhnykTRWHjkYGvoEgmxo-52" value="" style="rounded=0;html=1;jettySize=auto;orthogonalLoop=1;fontSize=11;endArrow=block;endFill=0;endSize=8;strokeWidth=1;shadow=0;labelBackgroundColor=none;edgeStyle=orthogonalEdgeStyle;exitX=0.5;exitY=1;exitDx=0;exitDy=0;entryX=1;entryY=0.5;entryDx=0;entryDy=0;" edge="1" parent="1" source="VhnykTRWHjkYGvoEgmxo-45" target="VhnykTRWHjkYGvoEgmxo-55">
          <mxGeometry relative="1" as="geometry">
            <mxPoint x="470" y="-40" as="sourcePoint" />
            <mxPoint x="525" y="-600" as="targetPoint" />
            <Array as="points">
              <mxPoint x="470" y="-10" />
              <mxPoint x="750" y="-10" />
              <mxPoint x="750" y="-600" />
              <mxPoint x="530" y="-600" />
              <mxPoint x="530" y="-604" />
            </Array>
          </mxGeometry>
        </mxCell>
        <mxCell id="VhnykTRWHjkYGvoEgmxo-53" value="Bet/raise" style="edgeLabel;html=1;align=center;verticalAlign=middle;resizable=0;points=[];fontSize=12;" vertex="1" connectable="0" parent="VhnykTRWHjkYGvoEgmxo-52">
          <mxGeometry x="-0.8437" relative="1" as="geometry">
            <mxPoint as="offset" />
          </mxGeometry>
        </mxCell>
        <mxCell id="VhnykTRWHjkYGvoEgmxo-54" value="" style="rounded=0;html=1;jettySize=auto;orthogonalLoop=1;fontSize=11;endArrow=block;endFill=0;endSize=8;strokeWidth=1;shadow=0;labelBackgroundColor=none;edgeStyle=orthogonalEdgeStyle;exitX=0.5;exitY=1;exitDx=0;exitDy=0;entryX=0.5;entryY=0;entryDx=0;entryDy=0;" edge="1" parent="1" source="VhnykTRWHjkYGvoEgmxo-55" target="VhnykTRWHjkYGvoEgmxo-41">
          <mxGeometry relative="1" as="geometry">
            <mxPoint x="475" y="-590" as="sourcePoint" />
            <mxPoint x="470" y="-470" as="targetPoint" />
          </mxGeometry>
        </mxCell>
        <mxCell id="VhnykTRWHjkYGvoEgmxo-55" value="Render BB options" style="rounded=1;whiteSpace=wrap;html=1;fontSize=12;glass=0;strokeWidth=1;shadow=0;fillColor=#dae8fc;strokeColor=#6c8ebf;" vertex="1" parent="1">
          <mxGeometry x="405" y="-624" width="120" height="40" as="geometry" />
        </mxCell>
        <mxCell id="VhnykTRWHjkYGvoEgmxo-57" value="Call" style="edgeStyle=orthogonalEdgeStyle;rounded=0;html=1;jettySize=auto;orthogonalLoop=1;fontSize=11;endArrow=block;endFill=0;endSize=8;strokeWidth=1;shadow=0;labelBackgroundColor=none;exitX=0;exitY=0.5;exitDx=0;exitDy=0;entryX=1;entryY=0.5;entryDx=0;entryDy=0;" edge="1" parent="1" source="VhnykTRWHjkYGvoEgmxo-45" target="VhnykTRWHjkYGvoEgmxo-31">
          <mxGeometry x="-0.9077" y="8" relative="1" as="geometry">
            <mxPoint as="offset" />
            <mxPoint x="290" y="-50" as="sourcePoint" />
            <mxPoint x="270" y="-98" as="targetPoint" />
          </mxGeometry>
        </mxCell>
        <mxCell id="VhnykTRWHjkYGvoEgmxo-63" value="" style="rounded=0;html=1;jettySize=auto;orthogonalLoop=1;fontSize=11;endArrow=block;endFill=0;endSize=8;strokeWidth=1;shadow=0;labelBackgroundColor=none;edgeStyle=orthogonalEdgeStyle;exitX=1;exitY=0.5;exitDx=0;exitDy=0;entryX=0;entryY=0.5;entryDx=0;entryDy=0;" edge="1" parent="1" source="VhnykTRWHjkYGvoEgmxo-45" target="VhnykTRWHjkYGvoEgmxo-51">
          <mxGeometry relative="1" as="geometry">
            <mxPoint x="600" y="-190" as="sourcePoint" />
            <mxPoint x="600" y="-110" as="targetPoint" />
          </mxGeometry>
        </mxCell>
        <mxCell id="VhnykTRWHjkYGvoEgmxo-64" value="Fold" style="edgeLabel;html=1;align=center;verticalAlign=middle;resizable=0;points=[];fontSize=12;" vertex="1" connectable="0" parent="VhnykTRWHjkYGvoEgmxo-63">
          <mxGeometry x="0.1167" relative="1" as="geometry">
            <mxPoint as="offset" />
          </mxGeometry>
        </mxCell>
        <mxCell id="VhnykTRWHjkYGvoEgmxo-65" value="Call" style="edgeStyle=orthogonalEdgeStyle;rounded=0;html=1;jettySize=auto;orthogonalLoop=1;fontSize=11;endArrow=block;endFill=0;endSize=8;strokeWidth=1;shadow=0;labelBackgroundColor=none;exitX=0;exitY=0.5;exitDx=0;exitDy=0;entryX=1;entryY=0.5;entryDx=0;entryDy=0;" edge="1" parent="1" source="VhnykTRWHjkYGvoEgmxo-41" target="VhnykTRWHjkYGvoEgmxo-31">
          <mxGeometry x="-0.9077" y="8" relative="1" as="geometry">
            <mxPoint as="offset" />
            <mxPoint x="350" y="-420" as="sourcePoint" />
            <mxPoint x="200" y="-430" as="targetPoint" />
          </mxGeometry>
        </mxCell>
      </root>
    </mxGraphModel>
  </diagram>
</mxfile>
